<svg width="24" height="24" viewBox="0 0 24 24" fill="none" xmlns="http://www.w3.org/2000/svg">
<path d="M9 11H9.75C9.75 10.5858 9.41421 10.25 9 10.25V11ZM9 20V20.75C9.41421 20.75 9.75 20.4142 9.75 20H9ZM3 20H2.25C2.25 20.4142 2.58579 20.75 3 20.75V20ZM4 11.75H9V10.25H4V11.75ZM8.25 11V20H9.75V11H8.25ZM9 19.25H3V20.75H9V19.25ZM3.75 20V12H2.25V20H3.75ZM4 10.25C3.0335 10.25 2.25 11.0335 2.25 12H3.75C3.75 11.8619 3.86193 11.75 4 11.75V10.25Z" fill="#878FA9"/>
<path d="M15 8V7.25C14.5858 7.25 14.25 7.58579 14.25 8H15ZM21 20V20.75C21.4142 20.75 21.75 20.4142 21.75 20H21ZM15 20H14.25C14.25 20.4142 14.5858 20.75 15 20.75V20ZM15 8.75H20V7.25H15V8.75ZM20.25 9V20H21.75V9H20.25ZM21 19.25H15V20.75H21V19.25ZM15.75 20V8H14.25V20H15.75ZM20 8.75C20.1381 8.75 20.25 8.86193 20.25 9H21.75C21.75 8.0335 20.9665 7.25 20 7.25V8.75Z" fill="#878FA9"/>
<path d="M15 20V20.75C15.4142 20.75 15.75 20.4142 15.75 20H15ZM9 20H8.25C8.25 20.4142 8.58579 20.75 9 20.75V20ZM10 4.75H14V3.25H10V4.75ZM14.25 5V20H15.75V5H14.25ZM15 19.25H9V20.75H15V19.25ZM9.75 20V5H8.25V20H9.75ZM14 4.75C14.1381 4.75 14.25 4.86193 14.25 5H15.75C15.75 4.0335 14.9665 3.25 14 3.25V4.75ZM10 3.25C9.0335 3.25 8.25 4.0335 8.25 5H9.75C9.75 4.86193 9.86193 4.75 10 4.75V3.25Z" fill="#878FA9"/>
</svg>
