<svg width="44" height="44" viewBox="0 0 44 44" fill="none" xmlns="http://www.w3.org/2000/svg">
<path d="M22 38.5C31.1127 38.5 38.5 31.1127 38.5 22C38.5 12.8873 31.1127 5.5 22 5.5C12.8873 5.5 5.5 12.8873 5.5 22C5.5 31.1127 12.8873 38.5 22 38.5Z" stroke="white" stroke-width="2.75" stroke-linecap="round" stroke-linejoin="round"/>
<path d="M27.1333 16.5004C26.8012 15.9243 26.3187 15.4494 25.7374 15.1265C25.1561 14.8035 24.4979 14.6447 23.8333 14.6671H20.1667C19.1942 14.6671 18.2616 15.0534 17.5739 15.7411C16.8863 16.4287 16.5 17.3613 16.5 18.3338C16.5 19.3062 16.8863 20.2389 17.5739 20.9265C18.2616 21.6141 19.1942 22.0004 20.1667 22.0004H23.8333C24.8058 22.0004 25.7384 22.3868 26.4261 23.0744C27.1137 23.762 27.5 24.6947 27.5 25.6671C27.5 26.6396 27.1137 27.5722 26.4261 28.2598C25.7384 28.9475 24.8058 29.3338 23.8333 29.3338H20.1667C19.5021 29.3562 18.8439 29.1974 18.2626 28.8744C17.6813 28.5515 17.1988 28.0766 16.8667 27.5004" stroke="white" stroke-width="2.75" stroke-linecap="round" stroke-linejoin="round"/>
<path d="M22 29.3333V33M22 11V14.6667V11Z" stroke="white" stroke-width="2.75" stroke-linecap="round" stroke-linejoin="round"/>
</svg>
