<svg width="24" height="18" viewBox="0 0 24 18" fill="none" xmlns="http://www.w3.org/2000/svg">
<path d="M20.3175 1.49197C18.7875 0.801974 17.1475 0.291974 15.4325 0.0019736C15.4172 -0.000958481 15.4014 0.000931061 15.3872 0.00738094C15.3731 0.0138308 15.3613 0.0245219 15.3535 0.0379736C15.1435 0.406974 14.9095 0.887974 14.7455 1.26797C12.9266 0.99621 11.0774 0.99621 9.25848 1.26797C9.07582 0.846834 8.86983 0.436198 8.64148 0.0379736C8.63374 0.0243563 8.62203 0.0134234 8.60792 0.00663373C8.5938 -0.000155898 8.57795 -0.00247938 8.56248 -2.64894e-05C6.84848 0.289973 5.20848 0.799974 3.67748 1.49097C3.66431 1.4965 3.65314 1.50592 3.64548 1.51797C0.533481 6.09297 -0.319519 10.555 0.0994806 14.961C0.100647 14.9718 0.103996 14.9822 0.109326 14.9917C0.114655 15.0011 0.121853 15.0094 0.130481 15.016C1.94687 16.3384 3.97282 17.3458 6.12348 17.996C6.13847 18.0006 6.15451 18.0006 6.16949 17.9959C6.18448 17.9913 6.19772 17.9823 6.20748 17.97C6.66948 17.35 7.08148 16.695 7.43348 16.007C7.45448 15.967 7.43448 15.919 7.39248 15.903C6.74649 15.6597 6.12057 15.3661 5.52048 15.025C5.5097 15.0188 5.50061 15.0101 5.49404 14.9995C5.48746 14.989 5.48361 14.977 5.48281 14.9646C5.48202 14.9522 5.48432 14.9398 5.48949 14.9286C5.49467 14.9173 5.50257 14.9075 5.51248 14.9C5.63848 14.807 5.76448 14.71 5.88448 14.613C5.89528 14.6043 5.90829 14.5987 5.92206 14.5969C5.93584 14.5952 5.94983 14.5973 5.96248 14.603C9.88948 16.367 14.1425 16.367 18.0235 14.603C18.0362 14.5969 18.0503 14.5946 18.0643 14.5961C18.0782 14.5977 18.0915 14.6032 18.1025 14.612C18.2225 14.71 18.3475 14.807 18.4745 14.9C18.4845 14.9073 18.4925 14.917 18.4979 14.9282C18.5032 14.9394 18.5057 14.9517 18.5051 14.9641C18.5045 14.9765 18.5008 14.9885 18.4945 14.9991C18.4881 15.0098 18.4791 15.0186 18.4685 15.025C17.8705 15.369 17.2485 15.66 16.5955 15.902C16.5855 15.9056 16.5763 15.9114 16.5687 15.9188C16.561 15.9263 16.5551 15.9353 16.5512 15.9452C16.5473 15.9551 16.5456 15.9658 16.5462 15.9764C16.5467 15.9871 16.5496 15.9975 16.5545 16.007C16.9145 16.694 17.3265 17.348 17.7795 17.969C17.7889 17.9817 17.802 17.9912 17.8171 17.9963C17.8321 18.0013 17.8483 18.0015 17.8635 17.997C20.0178 17.3486 22.0471 16.3407 23.8655 15.016C23.8744 15.0098 23.8818 15.0017 23.8873 14.9924C23.8928 14.9831 23.8963 14.9727 23.8975 14.962C24.3975 9.86797 23.0595 5.44197 20.3485 1.51997C20.3418 1.50723 20.3308 1.49729 20.3175 1.49197ZM8.02048 12.278C6.83848 12.278 5.86348 11.209 5.86348 9.89797C5.86348 8.58597 6.81948 7.51797 8.02048 7.51797C9.23048 7.51797 10.1965 8.59497 10.1775 9.89797C10.1775 11.21 9.22148 12.278 8.02048 12.278ZM15.9955 12.278C14.8125 12.278 13.8385 11.209 13.8385 9.89797C13.8385 8.58597 14.7935 7.51797 15.9955 7.51797C17.2055 7.51797 18.1715 8.59497 18.1525 9.89797C18.1525 11.21 17.2065 12.278 15.9955 12.278Z" fill="white"/>
</svg>
