<svg width="23" height="20" viewBox="0 0 23 20" fill="none" xmlns="http://www.w3.org/2000/svg">
<path d="M22.706 2.93659C21.871 3.30659 20.974 3.55659 20.031 3.66959C21.004 3.08738 21.7319 2.17105 22.079 1.09159C21.1648 1.63458 20.1643 2.01678 19.121 2.22159C18.4194 1.47245 17.4901 0.975915 16.4773 0.809063C15.4646 0.642211 14.4251 0.81438 13.5202 1.29884C12.6154 1.7833 11.8958 2.55295 11.4732 3.48829C11.0505 4.42363 10.9485 5.47234 11.183 6.47159C9.33069 6.37858 7.51863 5.89714 5.86442 5.05849C4.21022 4.21985 2.75084 3.04275 1.581 1.60359C1.181 2.29359 0.951 3.09359 0.951 3.94559C0.950554 4.71258 1.13943 5.46783 1.50088 6.14432C1.86232 6.82081 2.38516 7.39763 3.023 7.82359C2.28328 7.80005 1.55987 7.60017 0.913 7.24059V7.30059C0.912925 8.37633 1.28503 9.41897 1.96618 10.2516C2.64733 11.0842 3.59557 11.6555 4.65 11.8686C3.96378 12.0543 3.24434 12.0817 2.546 11.9486C2.8435 12.8742 3.423 13.6836 4.20337 14.2635C4.98374 14.8434 5.92592 15.1648 6.898 15.1826C5.24783 16.478 3.20989 17.1807 1.112 17.1776C0.740381 17.1777 0.369076 17.156 0 17.1126C2.12948 18.4818 4.60834 19.2084 7.14 19.2056C15.71 19.2056 20.395 12.1076 20.395 5.95159C20.395 5.75159 20.39 5.54959 20.381 5.34959C21.2923 4.69056 22.0789 3.87448 22.704 2.93959L22.706 2.93659Z" fill="white"/>
</svg>
