<svg width="20" height="16" viewBox="0 0 20 16" fill="none" xmlns="http://www.w3.org/2000/svg">
<path d="M2.372 3.264C2.38425 3.14227 2.36784 3.01935 2.32408 2.9051C2.28033 2.79084 2.21043 2.68841 2.12 2.606L0.252 0.339V0H6.05L10.532 9.905L14.472 0H20V0.339L18.403 1.88C18.3353 1.93225 18.2831 2.00189 18.2519 2.0815C18.2208 2.16111 18.2118 2.24769 18.226 2.332V13.666C18.2118 13.7503 18.2208 13.8369 18.2519 13.9165C18.2831 13.9961 18.3353 14.0658 18.403 14.118L19.963 15.66V16H12.119V15.661L13.735 14.081C13.894 13.921 13.894 13.874 13.894 13.63V4.468L9.402 15.962H8.796L3.566 4.468V12.172C3.523 12.495 3.63 12.822 3.856 13.056L5.957 15.624V15.962H0V15.624L2.1 13.056C2.21111 12.9401 2.29358 12.7997 2.3408 12.6462C2.38803 12.4928 2.39871 12.3304 2.372 12.172V3.264Z" fill="white"/>
</svg>
