<svg xmlns="http://www.w3.org/2000/svg" xmlns:xlink="http://www.w3.org/1999/xlink" viewBox="0 0 105.02 78.86"><defs><style>.cls-1{fill:url(#linear-gradient);}.cls-2,.cls-3,.cls-4,.cls-5,.cls-6,.cls-7,.cls-8,.cls-9{fill:none;stroke-linecap:round;stroke-linejoin:round;}.cls-2{stroke:url(#linear-gradient-2);}.cls-3{stroke:url(#linear-gradient-3);}.cls-4{stroke:url(#linear-gradient-4);}.cls-5{stroke:url(#linear-gradient-5);}.cls-6{stroke:url(#linear-gradient-6);}.cls-7{stroke:url(#linear-gradient-7);}.cls-8{stroke:url(#linear-gradient-8);}.cls-9{stroke:url(#linear-gradient-9);}.cls-10{fill:#f6e0f6;}.cls-11{fill:url(#linear-gradient-10);}.cls-12{fill:url(#linear-gradient-11);}.cls-13{fill:url(#linear-gradient-12);}.cls-14{fill:url(#linear-gradient-13);}.cls-15{fill:url(#linear-gradient-14);}.cls-16{fill:url(#linear-gradient-15);}.cls-17{fill:url(#linear-gradient-16);}.cls-18{fill:url(#linear-gradient-17);}</style><linearGradient id="linear-gradient" x1="9.01" y1="40.2" x2="105.02" y2="40.2" gradientUnits="userSpaceOnUse"><stop offset="0" stop-color="#f3e1f6"/><stop offset="1" stop-color="#6873ef"/></linearGradient><linearGradient id="linear-gradient-2" x1="5" y1="2.32" x2="6" y2="2.32" xlink:href="#linear-gradient"/><linearGradient id="linear-gradient-3" x1="5" y1="8.69" x2="6" y2="8.69" xlink:href="#linear-gradient"/><linearGradient id="linear-gradient-4" x1="-17.96" y1="5.7" x2="-16.96" y2="5.7" gradientTransform="translate(14.39 22.96) rotate(90)" xlink:href="#linear-gradient"/><linearGradient id="linear-gradient-5" x1="-17.96" y1="12.08" x2="-16.96" y2="12.08" gradientTransform="translate(14.39 22.96) rotate(90)" xlink:href="#linear-gradient"/><linearGradient id="linear-gradient-6" x1="91.88" y1="50.58" x2="92.88" y2="50.58" xlink:href="#linear-gradient"/><linearGradient id="linear-gradient-7" x1="91.88" y1="56.95" x2="92.88" y2="56.95" xlink:href="#linear-gradient"/><linearGradient id="linear-gradient-8" x1="30.3" y1="-81.18" x2="31.3" y2="-81.18" gradientTransform="translate(14.39 22.96) rotate(90)" xlink:href="#linear-gradient"/><linearGradient id="linear-gradient-9" x1="30.3" y1="-74.8" x2="31.3" y2="-74.8" gradientTransform="translate(14.39 22.96) rotate(90)" xlink:href="#linear-gradient"/><linearGradient id="linear-gradient-10" x1="55.72" y1="15.71" x2="69.01" y2="15.71" gradientUnits="userSpaceOnUse"><stop offset="0" stop-color="#f3e1f6" stop-opacity="0"/><stop offset="1" stop-color="#bfaffb"/></linearGradient><linearGradient id="linear-gradient-11" x1="55.81" y1="49.95" x2="70.68" y2="49.95" xlink:href="#linear-gradient-10"/><linearGradient id="linear-gradient-12" x1="65.17" y1="44.24" x2="96.43" y2="44.24" gradientUnits="userSpaceOnUse"><stop offset="0" stop-color="#47465c"/><stop offset="1" stop-color="#141631"/></linearGradient><linearGradient id="linear-gradient-13" x1="79.48" y1="15.38" x2="98.11" y2="15.38" xlink:href="#linear-gradient-12"/><linearGradient id="linear-gradient-14" x1="62.66" y1="12.61" x2="81.57" y2="12.61" xlink:href="#linear-gradient-12"/><linearGradient id="linear-gradient-15" x1="17.18" y1="44.33" x2="48.62" y2="44.33" xlink:href="#linear-gradient-12"/><linearGradient id="linear-gradient-16" x1="15.57" y1="15.37" x2="34.24" y2="15.37" xlink:href="#linear-gradient-12"/><linearGradient id="linear-gradient-17" x1="32.31" y1="12.63" x2="51.05" y2="12.63" xlink:href="#linear-gradient-12"/></defs><g id="Layer_2" data-name="Layer 2"><g id="Layer_1-2" data-name="Layer 1"><path class="cls-1" d="M105,21l0-.1a.25.25,0,0,1,0-.08v-.14l0,0a.49.49,0,0,0,0-.11l0-.06s0,0,0,0L86.61,1.69l-.06,0-.07,0h0l-.1,0-.09,0H27.76l-.1,0-.09,0h0s0,0-.07,0l-.06,0L9.14,20.41l0,0a.18.18,0,0,0,0,.07.3.3,0,0,0,0,.1.05.05,0,0,0,0,0v.14s0,.06,0,.08l0,.1a.25.25,0,0,1,0,.07l0,0L56.63,78.68h0a.53.53,0,0,0,.14.12h0a.46.46,0,0,0,.22.06.46.46,0,0,0,.23-.06h0a.37.37,0,0,0,.13-.12h0l47.51-57.61,0,0A.25.25,0,0,1,105,21ZM86.38,2.89l17.14,17.55L74.73,26.12Zm-.94-.35L73.76,25.82,58,2.54ZM57,76.74,40.89,27.31H73.14ZM57,2.93,72.89,26.31H41.14ZM40.26,25.82,28.59,2.54H56.07ZM27.64,2.89,39.29,26.12,10.5,20.44ZM10.78,21.52l29,5.72L55.72,76Zm63.43,5.72,29-5.72L58.31,76Z"/><line class="cls-2" x1="5.5" y1="0.5" x2="5.5" y2="4.13"/><line class="cls-3" x1="5.5" y1="6.87" x2="5.5" y2="10.5"/><line class="cls-4" x1="10.5" y1="5.5" x2="6.87" y2="5.5"/><line class="cls-5" x1="4.13" y1="5.5" x2="0.5" y2="5.5"/><line class="cls-6" x1="92.38" y1="48.76" x2="92.38" y2="52.39"/><line class="cls-7" x1="92.38" y1="55.13" x2="92.38" y2="58.76"/><line class="cls-8" x1="97.38" y1="53.76" x2="93.75" y2="53.76"/><line class="cls-9" x1="91.01" y1="53.76" x2="87.38" y2="53.76"/><polygon class="cls-10" points="45.83 23.81 57.01 7.25 69.01 24.16 45.83 23.81"/><polygon class="cls-11" points="66.42 24.12 69.01 24.16 57.01 7.25 55.72 9.17 66.42 24.12"/><polygon class="cls-10" points="43.8 29.25 57.04 70.66 70.68 29.25 43.8 29.25"/><polygon class="cls-12" points="68.19 29.25 55.81 66.81 57.04 70.66 70.68 29.25 68.19 29.25"/><path class="cls-13" d="M65.2,62.47,76,29.59a.6.6,0,0,1,.46-.41l19.22-4a.61.61,0,0,1,.59,1l-30,36.85A.61.61,0,0,1,65.2,62.47Z"/><path class="cls-14" d="M79.52,22.29,86.64,8.08A.43.43,0,0,1,87.32,8L98,18.66a.42.42,0,0,1-.21.71L80,22.9A.43.43,0,0,1,79.52,22.29Z"/><path class="cls-15" d="M63,4.65H81.25a.32.32,0,0,1,.29.46L73.87,20.4a.32.32,0,0,1-.55,0L62.71,5.15A.32.32,0,0,1,63,4.65Z"/><path class="cls-16" d="M48.59,62.76,37.67,29.56a.56.56,0,0,0-.41-.38l-19.41-4a.56.56,0,0,0-.54.9l30.32,37.2A.55.55,0,0,0,48.59,62.76Z"/><path class="cls-17" d="M34.2,22.33,27,8.06A.4.4,0,0,0,26.4,8L15.69,18.69a.4.4,0,0,0,.21.68l17.86,3.54A.41.41,0,0,0,34.2,22.33Z"/><path class="cls-18" d="M50.74,4.66,32.6,5a.3.3,0,0,0-.26.44l7.5,15a.3.3,0,0,0,.52,0L51,5.13A.3.3,0,0,0,50.74,4.66Z"/></g></g></svg>