<svg xmlns="http://www.w3.org/2000/svg" xmlns:xlink="http://www.w3.org/1999/xlink" viewBox="0 0 72.98 79.02"><defs><style>.cls-1,.cls-10,.cls-5,.cls-6,.cls-7,.cls-8,.cls-9{fill:none;stroke-miterlimit:10;}.cls-1{stroke:url(#linear-gradient);}.cls-2{fill:url(#linear-gradient-2);}.cls-3{fill:#55536a;}.cls-4{fill:#f6e0f6;}.cls-5{stroke:url(#linear-gradient-3);}.cls-6{stroke:#f6e0f6;}.cls-7{stroke:url(#linear-gradient-4);}.cls-8{stroke:url(#linear-gradient-5);}.cls-9{stroke:url(#linear-gradient-6);}.cls-10{stroke:url(#linear-gradient-7);}</style><linearGradient id="linear-gradient" x1="10.86" y1="35.68" x2="64.61" y2="35.68" gradientUnits="userSpaceOnUse"><stop offset="0" stop-color="#f3e1f6"/><stop offset="1" stop-color="#6873ef"/></linearGradient><linearGradient id="linear-gradient-2" x1="37.74" y1="16.87" x2="37.74" y2="54.49" gradientUnits="userSpaceOnUse"><stop offset="0" stop-color="#47465c"/><stop offset="1" stop-color="#141631"/></linearGradient><linearGradient id="linear-gradient-3" x1="3.2" y1="34.89" x2="72.98" y2="34.89" xlink:href="#linear-gradient"/><linearGradient id="linear-gradient-4" x1="0" y1="22.46" x2="7.53" y2="22.46" xlink:href="#linear-gradient"/><linearGradient id="linear-gradient-5" x1="0" y1="47.14" x2="7.53" y2="47.14" xlink:href="#linear-gradient"/><linearGradient id="linear-gradient-6" x1="12.47" y1="78" x2="27.88" y2="69.1" gradientUnits="userSpaceOnUse"><stop offset="0" stop-color="#6a75ef"/><stop offset="1" stop-opacity="0"/></linearGradient><linearGradient id="linear-gradient-7" x1="-165.95" y1="78" x2="-150.53" y2="69.1" gradientTransform="matrix(-1, 0, 0, 1, -102.95, 0)" xlink:href="#linear-gradient-6"/></defs><g id="Layer_2" data-name="Layer 2"><g id="Layer_1-2" data-name="Layer 1"><polygon class="cls-1" points="50.88 12.91 24.59 12.91 11.44 35.68 24.59 58.45 50.88 58.45 64.03 35.68 50.88 12.91"/><polygon class="cls-2" points="48.59 16.87 26.88 16.87 16.02 35.68 26.88 54.49 48.59 54.49 59.45 35.68 48.59 16.87"/><polygon class="cls-3" points="27.59 18.11 47.88 18.11 58.03 35.68 59.45 35.68 48.59 16.87 26.88 16.87 16.02 35.68 17.44 35.68 27.59 18.11"/><path class="cls-4" d="M43.08,32.16a5.35,5.35,0,1,0-7.95,4.64l-.88,9a1.2,1.2,0,0,0,1.19,1.32H40a1.2,1.2,0,0,0,1.19-1.32l-.88-9A5.34,5.34,0,0,0,43.08,32.16Z"/><path class="cls-5" d="M3.7,18.11V11.37A10.86,10.86,0,0,1,14.56.5H61.62A10.86,10.86,0,0,1,72.48,11.37V58.42A10.87,10.87,0,0,1,61.62,69.29H14.56A10.87,10.87,0,0,1,3.7,58.42V51.49"/><line class="cls-6" x1="3.7" y1="42.78" x2="3.7" y2="26.82"/><rect class="cls-7" x="0.5" y="18.11" width="6.53" height="8.71" rx="1.57"/><rect class="cls-8" x="0.5" y="42.78" width="6.53" height="8.71" rx="1.57"/><polyline class="cls-9" points="13.56 70.66 13.56 78.52 22.59 78.52 28.56 70.66"/><polyline class="cls-10" points="61.91 70.66 61.91 78.52 52.88 78.52 46.91 70.66"/></g></g></svg>