<svg xmlns="http://www.w3.org/2000/svg" xmlns:xlink="http://www.w3.org/1999/xlink" viewBox="0 0 70.76 77.44"><defs><style>.cls-1{fill:none;stroke-miterlimit:10;stroke:url(#linear-gradient);}.cls-2{fill:url(#linear-gradient-2);}.cls-3{fill:#55536a;}.cls-4{fill:#f6e2f6;}.cls-5{fill:url(#linear-gradient-3);}.cls-6{fill:url(#linear-gradient-4);}.cls-7{fill:url(#linear-gradient-5);}.cls-8{fill:url(#linear-gradient-6);}.cls-9{fill:url(#linear-gradient-7);}.cls-10{fill:url(#linear-gradient-8);}.cls-11{fill:url(#linear-gradient-9);}</style><linearGradient id="linear-gradient" x1="7.48" y1="38.72" x2="63.14" y2="38.72" gradientUnits="userSpaceOnUse"><stop offset="0" stop-color="#f3e1f6"/><stop offset="1" stop-color="#6873ef"/></linearGradient><linearGradient id="linear-gradient-2" x1="35.31" y1="13.11" x2="35.31" y2="64.33" gradientUnits="userSpaceOnUse"><stop offset="0" stop-color="#47465c"/><stop offset="1" stop-color="#141631"/></linearGradient><linearGradient id="linear-gradient-3" x1="21.05" y1="25.75" x2="49.58" y2="25.75" gradientUnits="userSpaceOnUse"><stop offset="0" stop-color="#f3e1f6" stop-opacity="0"/><stop offset="1" stop-color="#bfaffb"/></linearGradient><linearGradient id="linear-gradient-4" x1="37.06" y1="43.74" x2="51.32" y2="43.74" xlink:href="#linear-gradient-3"/><linearGradient id="linear-gradient-5" x1="19.32" y1="43.73" x2="33.56" y2="43.73" xlink:href="#linear-gradient-3"/><linearGradient id="linear-gradient-6" y1="17.51" x2="31.69" y2="17.51" gradientUnits="userSpaceOnUse"><stop offset="0" stop-color="#f3e1f6" stop-opacity="0"/><stop offset="0.12" stop-color="#f1dff6" stop-opacity="0.02"/><stop offset="0.25" stop-color="#e9d9f6" stop-opacity="0.07"/><stop offset="0.38" stop-color="#ddd0f5" stop-opacity="0.16"/><stop offset="0.52" stop-color="#ccc2f4" stop-opacity="0.28"/><stop offset="0.65" stop-color="#b7b1f3" stop-opacity="0.44"/><stop offset="0.79" stop-color="#9c9cf2" stop-opacity="0.63"/><stop offset="0.92" stop-color="#7d83f0" stop-opacity="0.85"/><stop offset="1" stop-color="#6873ef"/></linearGradient><linearGradient id="linear-gradient-7" x1="39.08" y1="17.51" x2="70.76" y2="17.51" xlink:href="#linear-gradient-6"/><linearGradient id="linear-gradient-8" x1="17.57" y1="73.6" x2="14.06" y2="61.44" xlink:href="#linear-gradient-6"/><linearGradient id="linear-gradient-9" x1="69.8" y1="41.86" x2="46.71" y2="81.85" xlink:href="#linear-gradient-6"/></defs><g id="Layer_2" data-name="Layer 2"><g id="Layer_1-2" data-name="Layer 1"><polygon class="cls-1" points="62.64 54.5 35.31 70.28 7.98 54.5 7.98 22.94 35.31 7.17 62.64 22.94 62.64 54.5"/><polygon class="cls-2" points="57.49 51.53 35.31 64.33 13.13 51.53 13.13 25.92 35.31 13.11 57.49 25.92 57.49 51.53"/><polygon class="cls-3" points="57.49 25.92 57.49 29.21 35.31 16.4 13.13 29.21 13.13 25.92 35.31 13.11 57.49 25.92"/><polygon class="cls-4" points="19.32 31.92 33.56 40.95 33.56 55.54 19.32 47.62 19.32 31.92"/><polygon class="cls-4" points="49.58 28.86 35.31 37.91 21.05 28.86 35.31 20.92 49.58 28.86"/><polygon class="cls-4" points="51.32 31.92 51.32 47.62 37.06 55.55 37.06 40.95 51.32 31.92"/><polygon class="cls-5" points="35.31 24.13 46.88 30.57 49.58 28.86 35.31 20.92 21.05 28.86 23.75 30.57 35.31 24.13"/><polygon class="cls-6" points="48.43 46.01 37.06 52.34 37.06 55.55 51.31 47.62 51.31 31.92 48.43 33.75 48.43 46.01"/><polygon class="cls-7" points="22.21 46.01 22.21 33.75 19.32 31.92 19.32 47.62 33.56 55.54 33.56 52.33 22.21 46.01"/><polygon class="cls-8" points="1.17 35.03 1.17 18.97 31.69 1.35 31.69 0 0 18.29 0 35.03 1.17 35.03"/><polygon class="cls-9" points="39.08 1.35 69.6 18.97 69.6 35.03 70.76 35.03 70.76 18.29 39.08 0 39.08 1.35"/><polygon class="cls-10" points="31.69 76.1 1.17 58.48 1.17 42.42 0 42.42 0 59.15 31.69 77.44 31.69 76.1"/><polygon class="cls-11" points="69.6 42.42 69.6 58.48 39.08 76.1 39.08 77.44 70.76 59.15 70.76 42.42 69.6 42.42"/></g></g></svg>