<svg width="25" height="56" viewBox="0 0 25 56" fill="none" xmlns="http://www.w3.org/2000/svg">
<path d="M12.2042 0V36.4935C10.5675 36.5471 8.80856 37.1638 6.71686 38.3232C5.27712 39.1141 0.0479219 44.2681 0.0479219 45.26C-0.549705 30.5152 4.62516 30.9843 5.39936 28.8865C7.15829 24.1413 4.72026 19.6241 5.16169 14.6108C5.60312 9.59756 8.38751 3.43823 12.2042 0Z" fill="#E55504"/>
<path d="M24.3351 45.2667C24.3351 44.2815 19.0447 39.2347 17.6661 38.3232C15.7034 37.0297 14.0056 36.4198 12.1924 36.4935V0C16.0023 3.43823 18.7663 9.60427 19.2281 14.6175C19.6899 19.6308 17.2315 24.1481 18.9768 28.8932C19.7646 31.0111 24.9463 30.542 24.3351 45.2667Z" fill="url(#paint0_linear_93_484)"/>
<path opacity="0.67" d="M12.1777 36.4868L11.7974 0.38201L12.198 0C12.3314 0.111338 12.4583 0.229927 12.5783 0.355216L12.1777 36.4868Z" fill="#FCEDAC"/>
<path d="M15.8985 44.1817C15.8985 46.8771 14.3416 49.5057 12.1654 49.5057C9.98908 49.5057 8.28016 45.934 8.01746 44.1817C8.01746 41.4863 10.1191 38.5166 11.958 39.0663C15.1104 38.5166 15.8985 41.4863 15.8985 44.1817Z" fill="#EB7212"/>
<path d="M13.7795 39.2431C14.5895 39.7565 15.1679 40.6594 15.2009 41.7216C15.2505 43.7046 13.9613 44.6783 13.201 46.0061C12.1101 47.9182 12.4077 49.1043 12.4077 49.1043C12.4077 49.1043 11.4987 48.5555 10.9697 46.5194C10.8045 45.9175 10.7714 45.3156 10.821 44.749C10.9036 43.315 11.482 42.0226 11.482 42.0226C11.482 42.0226 10.4739 42.2528 10.1929 44.2179C9.73008 43.7045 9.3004 42.9609 9.25091 42.1819C9.1683 40.8367 9.91194 39.5974 11.036 39.0663C9.08566 39.5444 7.69732 41.3147 7.21794 42.607C6.6064 44.2358 6.77175 45.6875 6.87085 46.9446C7.00309 48.6619 6.44117 49.9366 6.44117 49.9366C6.44117 49.9366 7.51541 49.6003 8.30886 48.2016C8.67244 47.5642 8.82118 46.626 8.82118 46.626C8.82118 46.626 8.73857 47.4581 9.25086 48.9805C9.76319 50.4677 10.226 50.9988 10.507 52.0965C10.8706 53.566 12.4077 55.5 12.4077 55.5C12.4077 55.5 11.5456 53.992 13 51C14.2891 48.3443 15.4819 47.1218 15.4819 47.1218C15.4819 47.1218 16.0273 47.6706 16.3083 48.4319C16.5893 49.1932 16.5232 49.8836 16.5232 49.8836C16.5232 49.8836 18.804 47.1926 17.6967 43.8111C16.9529 41.4387 15.515 39.8805 13.7795 39.2431Z" fill="url(#paint1_linear_93_484)"/>
<defs>
<linearGradient id="paint0_linear_93_484" x1="18.2887" y1="0" x2="18.2887" y2="45.2667" gradientUnits="userSpaceOnUse">
<stop stop-color="#FFE34A"/>
<stop offset="1" stop-color="#E55504"/>
</linearGradient>
<linearGradient id="paint1_linear_93_484" x1="12.2206" y1="55" x2="12.2206" y2="39.0663" gradientUnits="userSpaceOnUse">
<stop stop-color="#FFE03A"/>
<stop offset="1" stop-color="#FF9F59"/>
</linearGradient>
</defs>
</svg>
