<svg width="142" height="142" viewBox="0 0 142 142" fill="none" xmlns="http://www.w3.org/2000/svg">
<g filter="url(#filter0_b_80_588)">
<circle cx="71" cy="71" r="70" fill="white" fill-opacity="0.1" />
<circle cx="71" cy="71" r="70" stroke="#7D81AF"/>
</g>
<g filter="url(#filter1_b_80_588)">
<circle cx="71.0003" cy="70.9994" r="37.1605" stroke="#7D81AF"/>
</g>
<g clip-path="url(#clip0_80_588)">
<path d="M90.1759 15.5644L86.5439 21.2216L85.3227 20.9084L84.9698 15.945L82.2419 20.1195L81.0127 19.8063L80.5488 13.0986L81.7383 13.4039L82.0674 18.498L84.8747 14.2086L85.9333 14.4782L86.2862 19.6041L89.0617 15.283L90.1759 15.5644Z" fill="white"/>
<path d="M95.4924 23.9138L95.0721 24.8176L90.7344 22.7879L93.4385 17.0078L97.6573 18.99L97.237 19.8899L94.0888 18.4191L93.387 19.9256L96.1625 21.2299L95.766 22.1139L92.9905 20.8097L92.2451 22.3954L95.4924 23.9138Z" fill="white"/>
<path d="M109.534 31.5007L110.354 32.2658L108.622 34.1251C108.187 34.0891 107.762 33.9735 107.369 33.7842C106.954 33.5884 106.573 33.329 106.239 33.0151C105.783 32.6056 105.44 32.0873 105.24 31.5086C105.051 30.963 105.016 30.3763 105.137 29.8119C105.265 29.233 105.55 28.7008 105.961 28.2738C106.359 27.8331 106.871 27.5107 107.44 27.3421C107.996 27.1854 108.585 27.1854 109.141 27.3421C109.737 27.5035 110.283 27.8131 110.727 28.242C111.098 28.5767 111.4 28.9807 111.615 29.4313C111.812 29.8415 111.907 30.2929 111.893 30.7475L110.85 30.7712C110.843 30.4437 110.769 30.1211 110.632 29.8232C110.496 29.5253 110.3 29.2584 110.057 29.0389C109.756 28.7502 109.388 28.5405 108.987 28.4283C108.611 28.3296 108.216 28.3365 107.845 28.4482C107.455 28.5715 107.106 28.7974 106.834 29.1023C106.553 29.3919 106.357 29.7524 106.267 30.1449C106.178 30.5243 106.196 30.9206 106.318 31.2906C106.451 31.685 106.683 32.0386 106.992 32.3174C107.324 32.6365 107.734 32.8622 108.182 32.9715L109.534 31.5007Z" fill="white"/>
<path d="M115.004 32.8447L115.766 33.7565L110.869 37.8438L110.107 36.936L115.004 32.8447Z" fill="white"/>
<path d="M121.373 41.7489L114.506 42.8906L113.867 41.9114L117.705 36.0957L118.403 37.178L115.429 41.6379L120.727 40.7538L121.373 41.7489Z" fill="white"/>
<path d="M119.842 51.0811L118.934 51.4776L116.951 47.1168L122.764 44.4805L124.691 48.7223L123.787 49.1187L122.352 45.9473L120.837 46.6331L122.114 49.4359L121.225 49.8323L119.949 47.0256L118.363 47.755L119.842 51.0811Z" fill="white"/>
<path d="M124.387 64.4606L122.151 64.7341L122.008 63.5448L124.228 63.2753L128.043 60.2861L128.197 61.5468L125.334 63.7748L128.649 65.2733L128.788 66.4348L124.387 64.4606Z" fill="white"/>
<path d="M122.816 70.3914C123.105 69.8905 123.526 69.479 124.034 69.2021C124.553 68.9175 125.139 68.7804 125.731 68.8057C126.322 68.8165 126.898 68.9908 127.396 69.3092C127.885 69.6192 128.279 70.0582 128.534 70.5778C128.801 71.1291 128.926 71.7381 128.899 72.3499C128.887 72.9627 128.721 73.5626 128.415 74.0941C128.126 74.5935 127.707 75.0047 127.202 75.2834C126.681 75.5675 126.093 75.7045 125.501 75.6799C124.909 75.6683 124.331 75.4942 123.832 75.1764C123.346 74.8642 122.956 74.4255 122.701 73.9078C122.431 73.3578 122.306 72.7479 122.337 72.1358C122.347 71.5232 122.512 70.9232 122.816 70.3914ZM123.609 73.329C123.792 73.6731 124.067 73.9599 124.402 74.1576C124.748 74.3649 125.142 74.4783 125.544 74.4866C125.948 74.504 126.35 74.4166 126.71 74.2329C127.055 74.0513 127.342 73.7766 127.539 73.44C127.744 73.0952 127.856 72.7032 127.864 72.3023C127.881 71.9014 127.795 71.5029 127.614 71.1447C127.431 70.8006 127.157 70.5138 126.821 70.3161C126.476 70.1071 126.082 69.9935 125.679 69.9871C125.276 69.9676 124.875 70.0551 124.517 70.2408C124.171 70.4209 123.884 70.6959 123.689 71.0337C123.482 71.3792 123.37 71.7729 123.364 72.1754C123.348 72.5758 123.437 72.9734 123.621 73.329H123.609Z" fill="white"/>
<path d="M122.435 79.0294C122.769 78.8338 123.139 78.7074 123.523 78.6577C123.908 78.608 124.298 78.636 124.671 78.74L128.2 79.4694L127.958 80.631L124.477 79.9095C123.248 79.6558 122.526 80.0562 122.304 81.0988C122.082 82.1414 122.589 82.8074 123.819 83.0612L127.3 83.7826L127.062 84.9283L123.537 84.195C123.153 84.1421 122.784 84.0131 122.452 83.8157C122.119 83.6183 121.828 83.3564 121.598 83.0453C121.403 82.7242 121.274 82.3668 121.221 81.9948C121.168 81.6227 121.191 81.2437 121.289 80.8808C121.345 80.5109 121.476 80.1562 121.673 79.838C121.87 79.5198 122.129 79.2448 122.435 79.0294Z" fill="white"/>
<path d="M122.309 97.1308L121.749 98.1773L116.119 95.1644L116.67 94.1377L122.309 97.1308Z" fill="white"/>
<path d="M116.46 106.28L111.262 102.574L111.829 101.781L117.38 101.424L113.859 98.9145L114.545 97.9551L119.739 101.662L119.172 102.455L113.621 102.807L117.142 105.317L116.46 106.28Z" fill="white"/>
<path d="M112.214 109.567L110.826 108.207L108.669 110.411L107.951 109.709L110.108 107.505L108.36 105.797L109.192 104.952L113.752 109.416L110.493 112.746L109.783 112.048L112.214 109.567Z" fill="white"/>
<path d="M107.923 114.935L107.003 115.684L102.975 110.733L103.895 109.983L107.923 114.935Z" fill="white"/>
<path d="M98.9893 121.116L95.627 115.692L96.4596 115.177L101.725 116.997L99.4492 113.326L100.448 112.703L103.811 118.13L102.982 118.646L97.7125 116.822L99.9885 120.497L98.9893 121.116Z" fill="white"/>
<path d="M95.3813 122.879L94.3028 123.367L91.666 117.555L92.7445 117.067L95.3813 122.879Z" fill="white"/>
<path d="M89.1169 124.306L91.1311 123.652L91.4404 124.604L86.2858 126.281L85.9766 125.325L87.9869 124.671L86.3255 119.557L87.4516 119.188L89.1169 124.306Z" fill="white"/>
<path d="M77.4713 122.542L77.3008 121.563L82.0192 120.742L83.1135 127.03L78.522 127.823L78.3515 126.843L81.7773 126.249L81.4958 124.615L78.4586 125.143L78.292 124.183L81.3253 123.656L81.0239 121.92L77.4713 122.542Z" fill="white"/>
<path d="M65.7305 128.037L64.541 127.922L65.1794 121.579L66.3689 121.694L65.7305 128.037Z" fill="white"/>
<path d="M55.0293 126.122L56.4765 119.902L57.4241 120.124L59.8745 125.131L60.8539 120.921L61.9998 121.191L60.5525 127.407L59.6009 127.185L57.1545 122.178L56.1752 126.388L55.0293 126.122Z" fill="white"/>
<path d="M45.6953 122.594L50.7071 117.762L51.7856 118.21L51.9204 125.171L50.7309 124.68L50.6516 119.32L46.7897 123.046L45.6953 122.594Z" fill="white"/>
<path d="M41.6802 114.043L42.1917 113.19L46.2916 115.66L42.9966 121.127L39.0078 118.721L39.5193 117.872L42.4931 119.664L43.3535 118.245L40.7128 116.659L41.2163 115.823L43.857 117.408L44.765 115.902L41.6802 114.043Z" fill="white"/>
<path d="M39.4392 111.296C39.6788 111.632 39.8462 112.014 39.9309 112.418L39.0308 112.87C38.9465 112.515 38.8031 112.178 38.6066 111.871C38.4027 111.539 38.1455 111.243 37.8453 110.995C37.5763 110.741 37.2408 110.569 36.8778 110.499C36.7571 110.477 36.6328 110.488 36.5177 110.531C36.4026 110.573 36.3011 110.646 36.2236 110.741C36.1685 110.806 36.128 110.882 36.1048 110.964C36.0815 111.046 36.0761 111.132 36.0888 111.217C36.1211 111.405 36.1927 111.585 36.299 111.744C36.41 111.922 36.5765 112.14 36.7906 112.442C37.0438 112.764 37.2756 113.103 37.4845 113.456C37.6438 113.735 37.7322 114.048 37.7422 114.368C37.7364 114.731 37.595 115.079 37.3457 115.343C37.13 115.609 36.8402 115.805 36.513 115.906C36.1523 116.015 35.7675 116.015 35.4068 115.906C34.9425 115.764 34.5129 115.527 34.1459 115.209C33.8471 114.963 33.5807 114.681 33.3529 114.368C33.1375 114.084 32.9725 113.765 32.8652 113.425L33.7375 112.949C33.8458 113.249 33.9939 113.533 34.1776 113.793C34.3492 114.038 34.5518 114.259 34.7803 114.451C35.0455 114.702 35.3797 114.868 35.7399 114.927C35.8641 114.943 35.9904 114.927 36.1065 114.88C36.2225 114.832 36.3244 114.756 36.4021 114.658C36.4572 114.594 36.4975 114.519 36.5201 114.438C36.5427 114.358 36.5471 114.273 36.5329 114.19C36.4988 114.002 36.4274 113.822 36.3227 113.663C36.2077 113.484 36.0452 113.266 35.8311 112.965C35.5783 112.648 35.349 112.312 35.1451 111.962C34.9839 111.684 34.8939 111.371 34.8834 111.05C34.8832 110.693 35.016 110.348 35.2562 110.083C35.4686 109.816 35.7579 109.621 36.0848 109.524C36.4456 109.415 36.8303 109.415 37.1911 109.524C37.6562 109.669 38.0866 109.908 38.4559 110.225C38.8346 110.532 39.166 110.893 39.4392 111.296Z" fill="white"/>
<path d="M29.7649 109.599L31.2082 111.149L30.4747 111.831L26.7793 107.866L27.5128 107.184L28.9561 108.731L32.8894 105.06L33.6824 105.928L29.7649 109.599Z" fill="white"/>
<path d="M26.711 96.8656L23.1901 99.2125L27.2701 99.0262L27.5595 99.4662L25.8506 103.117L29.3279 100.81L29.9544 101.75L24.6373 105.282L24.0981 104.489L26.2194 100.037L21.3186 100.303L20.7754 99.5098L26.0885 95.9736L26.711 96.8656Z" fill="white"/>
<path d="M21.8419 89.1425L22.7499 88.7461L24.6808 93.1069L18.8364 95.6797L16.9609 91.4141L17.8689 91.0177L19.2686 94.1891L20.7872 93.5191L19.5461 90.7005L20.4383 90.3041L21.6793 93.1227L23.2931 92.4131L21.8419 89.1425Z" fill="white"/>
<path d="M14.2227 82.2449L20.4001 80.6592L20.646 81.6027L17.3471 86.0983L21.5302 85.0081L21.8276 86.1458L15.6501 87.7554L15.4042 86.8119L18.7032 82.3163L14.52 83.4025L14.2227 82.2449Z" fill="white"/>
<path d="M14.4279 76.7942L14.642 78.8993L13.6468 78.9984L13.0996 73.6108L14.0948 73.5117L14.3089 75.6128L19.6617 75.0697L19.7807 76.259L14.4279 76.7942Z" fill="white"/>
<path d="M20.0076 61.9314C19.8269 62.3019 19.5703 62.6301 19.2542 62.8947L18.4295 62.3159C18.7029 62.0735 18.9334 61.7867 19.1115 61.4676C19.3027 61.1299 19.4367 60.7628 19.508 60.3813C19.6091 60.0263 19.6091 59.6501 19.508 59.2951C19.4683 59.1795 19.3992 59.0763 19.3074 58.9957C19.2156 58.915 19.1043 58.8597 18.9846 58.8352C18.9017 58.8162 18.8156 58.816 18.7326 58.8345C18.6496 58.853 18.5718 58.8898 18.5049 58.9423C18.3522 59.0596 18.2264 59.2083 18.1361 59.3784C18.033 59.5607 17.9008 59.8144 17.7396 60.1395C17.5742 60.516 17.3849 60.8815 17.1726 61.2337C17.0046 61.5048 16.7715 61.7296 16.4946 61.8878C16.1753 62.0594 15.8035 62.106 15.4518 62.0186C15.1148 61.954 14.8044 61.7913 14.5596 61.5509C14.2988 61.2807 14.1224 60.9404 14.0521 60.5716C13.9514 60.0959 13.9514 59.6043 14.0521 59.1286C14.1242 58.7485 14.2455 58.3794 14.4129 58.0305C14.5615 57.7055 14.7639 57.4079 15.0116 57.1504L15.8443 57.6935C15.6336 57.9345 15.4537 58.2008 15.309 58.4864C15.1745 58.7537 15.0758 59.0376 15.0156 59.3308C14.9208 59.6832 14.9332 60.0559 15.0513 60.4012C15.0963 60.5181 15.1706 60.6214 15.2672 60.7013C15.3637 60.7811 15.4791 60.8348 15.6024 60.8571C15.6848 60.8741 15.7698 60.8734 15.8519 60.8549C15.9339 60.8365 16.0111 60.8007 16.0783 60.75C16.2266 60.6294 16.3504 60.4813 16.443 60.314C16.5461 60.1277 16.673 59.8739 16.8395 59.5488C16.9999 59.1765 17.1868 58.8162 17.3986 58.4705C17.57 58.1987 17.8038 57.9717 18.0806 57.8085C18.3956 57.6369 18.7636 57.5902 19.1115 57.6777C19.4461 57.7399 19.7543 57.9015 19.9957 58.1415C20.2555 58.4149 20.4303 58.7578 20.4992 59.1286C20.5999 59.6043 20.5999 60.0959 20.4992 60.5716C20.4036 61.0467 20.2379 61.505 20.0076 61.9314Z" fill="white"/>
<path d="M21.6645 54.2284C21.2353 54.616 20.7068 54.8768 20.138 54.9816C19.5555 55.0887 18.9548 55.0338 18.4013 54.823C17.845 54.6253 17.3529 54.28 16.9778 53.8241C16.6096 53.377 16.3734 52.836 16.2959 52.2621C16.2121 51.6557 16.283 51.0379 16.5021 50.4662C16.7038 49.8874 17.0489 49.3691 17.5052 48.9598C17.9328 48.5721 18.4601 48.3112 19.0278 48.2066C19.6115 48.0981 20.2139 48.153 20.7684 48.3651C21.326 48.5626 21.8194 48.908 22.1958 49.3642C22.5629 49.8116 22.7977 50.3525 22.8738 50.9261C22.9576 51.5325 22.8867 52.1503 22.6677 52.722C22.466 53.3008 22.1208 53.819 21.6645 54.2284ZM21.8152 51.1878C21.7556 50.8066 21.5908 50.4497 21.3394 50.157C21.0748 49.8527 20.7361 49.6219 20.3561 49.487C19.9773 49.3421 19.567 49.2997 19.1665 49.3642C18.7854 49.4263 18.4287 49.5923 18.1356 49.8438C17.8318 50.1064 17.6021 50.444 17.4696 50.823C17.324 51.2016 17.2816 51.612 17.3466 52.0123C17.4062 52.3935 17.571 52.7504 17.8224 53.043C18.0858 53.3486 18.425 53.5797 18.8058 53.713C19.1845 53.858 19.5949 53.9003 19.9953 53.8359C20.3765 53.7738 20.7331 53.6078 21.0262 53.3562C21.33 53.0937 21.5597 52.7561 21.6923 52.3771C21.8378 51.9985 21.8802 51.5881 21.8152 51.1878Z" fill="white"/>
<path d="M19.416 43.9649L19.991 42.9303L24.6935 45.5428L26.3152 42.625L27.1914 43.1126L24.9948 47.077L19.416 43.9649Z" fill="white"/>
<path d="M28.3494 40.2501C27.9635 40.2803 27.5755 40.2326 27.2084 40.1101C26.8413 39.9875 26.5025 39.7925 26.2122 39.5365L23.3574 37.3403L24.079 36.4008L26.8982 38.5692C27.8894 39.3357 28.7155 39.2894 29.3763 38.4304C30.0371 37.5715 29.8693 36.7628 28.8727 36.0043L26.0536 33.8357L26.7673 32.9121L29.6221 35.1084C29.9433 35.3232 30.2183 35.6001 30.4308 35.9228C30.6432 36.2456 30.7889 36.6075 30.8592 36.9875C30.8954 37.3611 30.8554 37.7382 30.7416 38.096C30.6277 38.4537 30.4425 38.7847 30.1971 39.0687C29.9855 39.3808 29.7126 39.6465 29.3949 39.8496C29.0772 40.0527 28.7215 40.189 28.3494 40.2501Z" fill="white"/>
<path d="M31.07 29.8479L29.5475 31.3147L28.8496 30.5932L32.7512 26.835L33.449 27.5565L31.9225 29.0233L35.6576 32.9004L34.8051 33.7211L31.07 29.8479Z" fill="white"/>
<path d="M35.1816 24.8924L36.1213 24.1709L40.019 29.2254L39.0793 29.9509L35.1816 24.8924Z" fill="white"/>
<path d="M43.4715 26.4148C42.8943 26.4374 42.3222 26.3002 41.818 26.0183C41.3018 25.7281 40.8752 25.3017 40.5849 24.7855C40.2839 24.2781 40.1263 23.6985 40.1289 23.1086C40.1337 22.5294 40.2984 21.9628 40.6048 21.4712C40.9289 20.9515 41.3789 20.5221 41.9132 20.2225C42.4393 19.907 43.0368 19.7297 43.6499 19.7071C44.2268 19.6864 44.7985 19.8234 45.3033 20.1036C45.8199 20.3952 46.2464 20.8231 46.5364 21.3405C46.8395 21.8486 46.9985 22.4297 46.9964 23.0214C46.9901 23.5996 46.8241 24.1648 46.5166 24.6546C46.1914 25.1735 45.7416 25.6027 45.2082 25.9034C44.6809 26.2158 44.0839 26.3916 43.4715 26.4148ZM45.5372 24.175C45.7337 23.8428 45.8339 23.4626 45.8267 23.0768C45.8205 22.6743 45.7084 22.2806 45.5016 21.9351C45.304 21.5826 45.0168 21.2885 44.6689 21.0827C44.3379 20.8866 43.9593 20.7852 43.5746 20.7894C43.1732 20.7989 42.7811 20.9123 42.4366 21.1185C42.0853 21.3142 41.7914 21.5984 41.5841 21.943C41.3877 22.2751 41.2875 22.6553 41.2947 23.0411C41.3009 23.4436 41.413 23.8375 41.6198 24.1829C41.8173 24.5354 42.1046 24.8295 42.4524 25.0352C42.7835 25.2313 43.162 25.3328 43.5468 25.3285C43.9482 25.319 44.3402 25.2057 44.6847 24.9996C45.036 24.8038 45.3299 24.5195 45.5372 24.175Z" fill="white"/>
<path d="M53.7059 15.0654L55.9025 21.0595L54.9866 21.3925L50.1929 18.5461L51.6797 22.6056L50.5775 23.0021L48.3809 17.0079L49.2968 16.671L54.0905 19.5214L52.6036 15.4619L53.7059 15.0654Z" fill="white"/>
<ellipse cx="67.9769" cy="15.2591" rx="2.1605" ry="2.16049" fill="white"/>
<path d="M83.498 59.585L54.7188 88.3642" stroke="white"/>
<path d="M84.0218 59.0619C84.0218 59.0619 78.7892 63.2479 73.5566 63.2479C68.3241 63.2479 63.6147 58.5386 63.6147 58.5386" stroke="white"/>
<path d="M84.0231 59.0622C84.0231 59.0622 79.837 64.2948 79.837 69.5273C79.837 74.7599 84.5464 79.4693 84.5464 79.4693" stroke="white"/>
</g>
<defs>
<filter id="filter0_b_80_588" x="-13.5" y="-13.5" width="169" height="169" filterUnits="userSpaceOnUse" color-interpolation-filters="sRGB">
<feFlood flood-opacity="0" result="BackgroundImageFix"/>
<feGaussianBlur in="BackgroundImage" stdDeviation="7"/>
<feComposite in2="SourceAlpha" operator="in" result="effect1_backgroundBlur_80_588"/>
<feBlend mode="normal" in="SourceGraphic" in2="effect1_backgroundBlur_80_588" result="shape"/>
</filter>
<filter id="filter1_b_80_588" x="29.3398" y="29.3389" width="83.3203" height="83.3213" filterUnits="userSpaceOnUse" color-interpolation-filters="sRGB">
<feFlood flood-opacity="0" result="BackgroundImageFix"/>
<feGaussianBlur in="BackgroundImage" stdDeviation="2"/>
<feComposite in2="SourceAlpha" operator="in" result="effect1_backgroundBlur_80_588"/>
<feBlend mode="normal" in="SourceGraphic" in2="effect1_backgroundBlur_80_588" result="shape"/>
</filter>
<clipPath id="clip0_80_588">
<rect width="115.802" height="114.938" fill="white" transform="translate(13.0996 13.0986)"/>
</clipPath>
</defs>
</svg>
