<svg width="42" height="95" viewBox="0 0 42 95" fill="none" xmlns="http://www.w3.org/2000/svg">
<path d="M21.4737 0V59.6668C18.8621 59.7545 16.0554 60.7626 12.7178 62.6584C10.4205 63.9514 2.07647 72.3782 2.07647 74C1.12286 49.8922 9.38018 50.6592 10.6155 47.2294C13.4222 39.471 9.53192 32.0853 10.2363 23.8886C10.9407 15.692 15.3836 5.6215 21.4737 0Z" fill="#A794FF"/>
<path d="M40.8685 74C40.8685 72.3894 32.4189 64.1392 30.217 62.6491C27.0823 60.5345 24.3707 59.5375 21.4746 59.658V0C27.5596 5.62067 31.9742 15.7006 32.7118 23.8961C33.4494 32.0915 29.5229 39.4762 32.3105 47.2333C33.5687 50.6956 41.8447 49.9286 40.8685 74Z" fill="url(#paint0_linear_93_528)"/>
<path d="M30 78C30 89.8426 25.7467 95.0003 20.5 95.0003C15.2533 95.0003 11 89.8426 11 78C11 66.1574 15.7533 61.5 21 61.5C26.2467 61.5 30 66.1574 30 78Z" fill="url(#paint1_radial_93_528)"/>
<defs>
<linearGradient id="paint0_linear_93_528" x1="31.2115" y1="0" x2="31.2115" y2="74" gradientUnits="userSpaceOnUse">
<stop stop-color="#EA90FF"/>
<stop offset="1" stop-color="#5B58F9"/>
</linearGradient>
<radialGradient id="paint1_radial_93_528" cx="0" cy="0" r="1" gradientUnits="userSpaceOnUse" gradientTransform="translate(21.5 61) rotate(90) scale(14 3.0283)">
<stop stop-color="#A794FF"/>
<stop offset="1" stop-color="#A794FF" stop-opacity="0"/>
</radialGradient>
</defs>
</svg>
