<svg width="74" height="39" viewBox="0 0 74 39" fill="none" xmlns="http://www.w3.org/2000/svg">
<path d="M74 19.4737L14.3332 19.4737C14.2455 16.8621 13.2374 14.0554 11.3416 10.7178C10.0486 8.42048 1.62179 0.0764675 -3.4281e-06 0.0764674C24.1078 -0.87714 23.3408 7.38018 26.7706 8.61554C34.529 11.4222 41.9147 7.53192 50.1114 8.23629C58.308 8.94066 68.3785 13.3836 74 19.4737Z" fill="#A794FF"/>
<path d="M2.2171e-06 38.8675C1.6106 38.8675 9.86081 30.4179 11.3509 28.2161C13.4655 25.0814 14.4625 22.3697 14.342 19.4736L74 19.4736C68.3793 25.5586 58.2994 29.9733 50.1039 30.7108C41.9085 31.4484 34.5238 27.5219 26.7667 30.3095C23.3044 31.5677 24.0714 39.8437 2.2171e-06 38.8675Z" fill="url(#paint0_linear_1_19)"/>
<defs>
<linearGradient id="paint0_linear_1_19" x1="74" y1="29.2105" x2="-4.25611e-07" y2="29.2105" gradientUnits="userSpaceOnUse">
<stop stop-color="#EA90FF"/>
<stop offset="1" stop-color="#5B58F9"/>
</linearGradient>
</defs>
</svg>
