<svg id="Layer_1" data-name="Layer 1" xmlns="http://www.w3.org/2000/svg" xmlns:xlink="http://www.w3.org/1999/xlink" viewBox="0 0 1338 1438.66"><defs><style>.cls-1{fill:url(#linear-gradient);}.cls-2{fill:url(#linear-gradient-2);}.cls-3{fill:url(#linear-gradient-3);}.cls-4{fill:#fff;}</style><linearGradient id="linear-gradient" x1="401.29" y1="903.15" x2="1026.58" y2="113.31" gradientUnits="userSpaceOnUse"><stop offset="0" stop-color="#f3f348"/><stop offset="0.22" stop-color="#cce64f"/><stop offset="0.72" stop-color="#6ac761"/><stop offset="1" stop-color="#31b46c"/></linearGradient><linearGradient id="linear-gradient-2" x1="359.02" y1="869.69" x2="984.31" y2="79.84" xlink:href="#linear-gradient"/><linearGradient id="linear-gradient-3" x1="258.32" y1="789.97" x2="883.62" y2="0.13" xlink:href="#linear-gradient"/></defs><path class="cls-1" d="M930.82,382.85a19,19,0,0,0-19,19V547.67c0,133.89-108.92,242.81-242.81,242.81S426.19,681.56,426.19,547.67V491.4a19,19,0,0,0-38,0v56.27c0,154.85,126,280.83,280.83,280.83s280.83-126,280.83-280.83V401.86A19,19,0,0,0,930.82,382.85Z"/><path class="cls-2" d="M669,724.11c97.29,0,176.44-79.15,176.44-176.44V293.8a19,19,0,1,0-38,0V547.67C807.43,624,745.33,686.1,669,686.1S530.57,624,530.57,547.67V353.94a19,19,0,1,0-38,0V547.67C492.56,645,571.71,724.11,669,724.11Z"/><path class="cls-3" d="M543.38,231,650,295.54V469.47l-37.13-58.73a19,19,0,0,0-32.13,20.31L650,540.61v61.92a19,19,0,0,0,38,0v-62.1a19.07,19.07,0,0,0,0-8.92V467.92a19.51,19.51,0,0,0,2.11-2.7l72.75-115.07a19,19,0,1,0-32.14-20.32L688,397.41V292.86l103.13-56.68A19,19,0,0,0,801,219.92l2.78-132.06a19,19,0,0,0-9.15-16.66l-113-68.45a19,19,0,0,0-19-.4L546.86,66A19,19,0,0,0,537,82.23L534.23,214.3A19,19,0,0,0,543.38,231ZM574.79,94l96.53-53L765.53,98l-2.32,110.12L688,249.48v-98.4a19,19,0,1,0-38,0v100l-77.52-47Z"/><polygon class="cls-4" points="217.08 1276.1 217.08 1146.3 56.21 1146.3 56.21 1276.1 0 1276.1 0 976.58 56.21 976.58 56.21 1101.4 217.08 1101.4 217.08 976.58 273.29 976.58 273.29 1276.1 217.08 1276.1"/><path class="cls-4" d="M510.2,1281.52c-31.29,0-59.83-6.81-84.82-20.23s-44.63-32-58.69-55.45-21.17-50.16-21.17-79.5,7.12-56.09,21.17-79.51,33.8-42.07,58.68-55.44,53.55-20.24,84.83-20.24,59.74,6.81,84.59,20.23a152.16,152.16,0,0,1,58.72,55.48c14.19,23.41,21.38,50.15,21.38,79.48s-7.19,56.06-21.38,79.47a152,152,0,0,1-58.72,55.48C570,1274.72,541.49,1281.52,510.2,1281.52Zm0-265c-20.1,0-38.56,4.72-54.87,14a101.31,101.31,0,0,0-38.72,39.2c-9.27,16.59-14,35.65-14,56.63s4.7,40,14,56.62a101.31,101.31,0,0,0,38.72,39.2c16.31,9.3,34.77,14,54.87,14s38.57-4.71,54.88-14A101.37,101.37,0,0,0,603.8,1183c9.27-16.59,14-35.64,14-56.62s-4.71-40-14-56.62a101.26,101.26,0,0,0-38.72-39.21C548.77,1021.22,530.3,1016.5,510.2,1016.5Z"/><path class="cls-4" d="M747.12,1276.1V976.58H882.41c32.87,0,62.26,6.31,87.33,18.78,24.79,12.32,44.32,29.9,58,52.23s20.67,48.84,20.67,78.75-7,56.41-20.67,78.75-33.24,39.89-58,52.22c-25.07,12.47-54.46,18.79-87.33,18.79Zm56.21-43.1h75.46c33.74,0,61.19-9.67,81.58-28.76,20.55-19.23,31-45.45,31-77.9s-10.41-58.67-31-77.91c-20.39-19.08-47.84-28.76-81.58-28.76H803.33Z"/><polygon class="cls-4" points="1120.67 1276.1 1120.67 976.58 1176.88 976.58 1176.88 1233.45 1335.62 1233.45 1335.62 1276.1 1120.67 1276.1"/><polygon class="cls-4" points="52.19 1389.27 11.82 1389.27 11.82 1354.01 0.78 1354.01 0.78 1437.12 11.82 1437.12 11.82 1399.72 52.19 1399.72 52.19 1437.12 63.11 1437.12 63.11 1354.01 52.19 1354.01 52.19 1389.27"/><path class="cls-4" d="M119.5,1352.47a43.1,43.1,0,1,0,0,86.19,43.1,43.1,0,1,0,0-86.19Zm22.85,66.07a30.82,30.82,0,0,1-22.85,9.32,30.85,30.85,0,0,1-22.86-9.32,31.45,31.45,0,0,1-9.2-23q0-13.77,9.2-23.09a30.84,30.84,0,0,1,22.86-9.31,30.82,30.82,0,0,1,22.85,9.31q9.19,9.33,9.2,23.09A31.45,31.45,0,0,1,142.35,1418.54Z"/><polygon class="cls-4" points="186.93 1354.01 175.89 1354.01 175.89 1437.12 222.78 1437.12 222.78 1426.67 186.93 1426.67 186.93 1354.01"/><path class="cls-4" d="M266.23,1354H233.82v83.11h32.41q17,0,28.2-12t11.21-29.51q0-17.44-11.21-29.5T266.23,1354ZM287,1417.77q-8.08,8.89-20.78,8.9H244.86v-62.21h21.37q12.7,0,20.78,8.9t8.07,22.2Q295.08,1408.87,287,1417.77Z"/><path class="cls-4" d="M387.32,1352.47A42.78,42.78,0,1,0,417.89,1365,41.4,41.4,0,0,0,387.32,1352.47Zm22.85,66.07a32.67,32.67,0,0,1-45.7,0,31.42,31.42,0,0,1-9.2-23q0-13.77,9.2-23.09a32.7,32.7,0,0,1,45.7,0q9.21,9.33,9.2,23.09A31.42,31.42,0,0,1,410.17,1418.54Z"/><polygon class="cls-4" points="495.35 1416.42 452.25 1354.01 443.71 1354.01 443.71 1437.12 454.75 1437.12 454.75 1375.03 497.49 1437.12 506.39 1437.12 506.39 1354.01 495.35 1354.01 495.35 1416.42"/><polygon class="cls-4" points="553.88 1437.12 564.92 1437.12 564.92 1401.86 600.18 1401.86 600.18 1391.41 564.92 1391.41 564.92 1364.46 601.72 1364.46 601.72 1354.01 553.88 1354.01 553.88 1437.12"/><path class="cls-4" d="M653.72,1352.47A42.78,42.78,0,1,0,684.29,1365,41.4,41.4,0,0,0,653.72,1352.47Zm22.85,66.07a32.67,32.67,0,0,1-45.7,0,31.42,31.42,0,0,1-9.2-23q0-13.77,9.2-23.09a32.7,32.7,0,0,1,45.7,0q9.21,9.33,9.2,23.09A31.42,31.42,0,0,1,676.57,1418.54Z"/><path class="cls-4" d="M764.42,1394.5a25.34,25.34,0,0,0-2.79-33,25,25,0,0,0-18.28-7.54H710.11v83.11h11V1405.3h19.62l18.61,31.82h12.23L752,1403.88A25.75,25.75,0,0,0,764.42,1394.5Zm-43.27.83v-31h22.2a14.06,14.06,0,0,1,10.51,4.51,15.2,15.2,0,0,1,4.33,10.93,15.39,15.39,0,0,1-4.33,11,14,14,0,0,1-10.51,4.57Z"/><path class="cls-4" d="M844.74,1354H812.33v83.11h32.41q17,0,28.19-12t11.22-29.51q0-17.44-11.22-29.5T844.74,1354Zm20.77,63.76q-8.07,8.89-20.77,8.9H823.37v-62.21h21.37q12.69,0,20.77,8.9t8.07,22.2Q873.58,1408.87,865.51,1417.77Z"/><polygon class="cls-4" points="908.6 1400.31 943.63 1400.31 943.63 1389.98 908.6 1389.98 908.6 1364.46 946.59 1364.46 946.59 1354.01 897.56 1354.01 897.56 1437.12 947.19 1437.12 947.19 1426.67 908.6 1426.67 908.6 1400.31"/><path class="cls-4" d="M984.82,1354l-31,83.11h11.76l6.78-18.64h37.37l6.78,18.64h11.75l-31-83.11Zm-8.7,54.14,14.93-41,14.93,41Z"/><path class="cls-4" d="M1092.44,1394.5a25.37,25.37,0,0,0-2.79-33,25.06,25.06,0,0,0-18.29-7.54h-33.24v83.11h11V1405.3h19.62l18.61,31.82h12.23L1080,1403.88A25.83,25.83,0,0,0,1092.44,1394.5Zm-43.28.83v-31h22.2a14.06,14.06,0,0,1,10.51,4.51,15.2,15.2,0,0,1,4.33,10.93,15.39,15.39,0,0,1-4.33,11,14,14,0,0,1-10.51,4.57Z"/><polygon class="cls-4" points="1151.38 1354.01 1140.34 1354.01 1140.34 1437.12 1187.23 1437.12 1187.23 1426.67 1151.38 1426.67 1151.38 1354.01"/><rect class="cls-4" x="1198.27" y="1354.01" width="11.04" height="83.1"/><polygon class="cls-4" points="1227.12 1437.12 1238.16 1437.12 1238.16 1401.86 1273.42 1401.86 1273.42 1391.41 1238.16 1391.41 1238.16 1364.46 1274.96 1364.46 1274.96 1354.01 1227.12 1354.01 1227.12 1437.12"/><polygon class="cls-4" points="1299.42 1426.67 1299.42 1400.31 1334.44 1400.31 1334.44 1389.98 1299.42 1389.98 1299.42 1364.46 1337.41 1364.46 1337.41 1354.01 1288.38 1354.01 1288.38 1437.12 1338 1437.12 1338 1426.67 1299.42 1426.67"/></svg>