<svg id="Layer_1" data-name="Layer 1" xmlns="http://www.w3.org/2000/svg" xmlns:xlink="http://www.w3.org/1999/xlink" viewBox="0 0 1695.07 592.05"><defs><style>.cls-1{fill:url(#linear-gradient);}.cls-2{fill:url(#linear-gradient-2);}.cls-3{fill:url(#linear-gradient-3);}.cls-4{fill:#fff;}</style><linearGradient id="linear-gradient" x1="9.37" y1="645.39" x2="456.21" y2="80.97" gradientUnits="userSpaceOnUse"><stop offset="0" stop-color="#f3f348"/><stop offset="0.22" stop-color="#cce64f"/><stop offset="0.72" stop-color="#6ac761"/><stop offset="1" stop-color="#31b46c"/></linearGradient><linearGradient id="linear-gradient-2" x1="-20.83" y1="621.48" x2="426" y2="57.06" xlink:href="#linear-gradient"/><linearGradient id="linear-gradient-3" x1="-92.79" y1="564.51" x2="354.04" y2="0.09" xlink:href="#linear-gradient"/></defs><path class="cls-1" d="M387.78,273.59a13.58,13.58,0,0,0-13.59,13.58v104.2c0,95.67-77.84,173.51-173.51,173.51S27.17,487,27.17,391.37V351.15a13.59,13.59,0,0,0-27.17,0v40.22C0,502,90,592.05,200.68,592.05s200.68-90,200.68-200.68V287.17A13.58,13.58,0,0,0,387.78,273.59Z"/><path class="cls-2" d="M200.68,517.45A126.23,126.23,0,0,0,326.77,391.37V210a13.59,13.59,0,0,0-27.17,0V391.37a98.92,98.92,0,0,1-197.84,0V252.92a13.59,13.59,0,0,0-27.17,0V391.37A126.23,126.23,0,0,0,200.68,517.45Z"/><path class="cls-3" d="M110.91,165l76.19,46.15V335.48l-26.54-42a13.58,13.58,0,1,0-23,14.52l49.5,78.29v44.25a13.58,13.58,0,1,0,27.16,0V386.19a13.58,13.58,0,0,0,0-6.37V334.37a13.59,13.59,0,0,0,1.51-1.92l52-82.24a13.58,13.58,0,1,0-23-14.51L214.26,284V209.28l73.7-40.5a13.62,13.62,0,0,0,7-11.62l2-94.38a13.57,13.57,0,0,0-6.55-11.9L209.71,2a13.56,13.56,0,0,0-13.58-.29L113.4,47.14a13.6,13.6,0,0,0-7,11.62l-2,94.38A13.58,13.58,0,0,0,110.91,165Zm22.45-97.87,69-37.91,67.32,40.79L268,148.74l-53.74,29.54V108a13.58,13.58,0,1,0-27.16,0v71.47l-55.4-33.56Z"/><polygon class="cls-4" points="716.97 358.14 716.97 244.89 576.6 244.89 576.6 358.14 527.55 358.14 527.55 96.79 576.6 96.79 576.6 205.7 716.97 205.7 716.97 96.79 766.02 96.79 766.02 358.14 716.97 358.14"/><path class="cls-4" d="M972.75,362.88c-27.31,0-52.22-5.94-74-17.66a130.79,130.79,0,0,1-51.21-48.38C835.26,276.41,829,253.07,829,227.47s6.22-48.95,18.48-69.38a131,131,0,0,1,51.2-48.38c21.82-11.72,46.73-17.66,74-17.66s52.12,5.94,73.81,17.65a132.8,132.8,0,0,1,51.23,48.42c12.38,20.43,18.66,43.76,18.66,69.35s-6.28,48.92-18.66,69.34a132.79,132.79,0,0,1-51.23,48.42C1024.88,356.94,1000.05,362.88,972.75,362.88Zm0-231.25c-17.55,0-33.66,4.11-47.89,12.22a88.36,88.36,0,0,0-33.78,34.21c-8.1,14.47-12.2,31.1-12.2,49.41s4.1,34.93,12.2,49.4a88.36,88.36,0,0,0,33.78,34.21c14.23,8.11,30.34,12.22,47.89,12.22s33.64-4.11,47.88-12.22a88.52,88.52,0,0,0,33.79-34.21c8.09-14.48,12.19-31.1,12.19-49.4s-4.1-34.93-12.19-49.41a88.46,88.46,0,0,0-33.79-34.21C1006.39,135.74,990.28,131.63,972.75,131.63Z"/><path class="cls-4" d="M1179.47,358.14V96.79h118c28.69,0,54.33,5.51,76.21,16.38,21.63,10.76,38.67,26.1,50.64,45.58s18,42.62,18,68.72-6.07,49.22-18,68.71-29,34.82-50.64,45.58c-21.88,10.87-47.52,16.38-76.21,16.38Zm49-37.6h65.85c29.44,0,53.39-8.44,71.18-25.09s27-39.66,27-68-9.09-51.2-27-68-41.74-25.09-71.18-25.09h-65.85Z"/><polygon class="cls-4" points="1505.43 358.14 1505.43 96.79 1554.48 96.79 1554.48 320.94 1692.99 320.94 1692.99 358.14 1505.43 358.14"/><polygon class="cls-4" points="573.09 456.9 537.86 456.9 537.86 426.13 528.23 426.13 528.23 498.65 537.86 498.65 537.86 466.02 573.09 466.02 573.09 498.65 582.62 498.65 582.62 426.13 573.09 426.13 573.09 456.9"/><path class="cls-4" d="M631.82,424.79a37.3,37.3,0,1,0,26.68,10.93A36.09,36.09,0,0,0,631.82,424.79Zm19.94,57.64a28.49,28.49,0,0,1-39.88,0,29.16,29.16,0,0,1,0-40.19,28.52,28.52,0,0,1,39.88,0,29.16,29.16,0,0,1,0,40.19Z"/><polygon class="cls-4" points="690.66 426.13 681.02 426.13 681.02 498.65 721.94 498.65 721.94 489.53 690.66 489.53 690.66 426.13"/><path class="cls-4" d="M759.86,426.13H731.58v72.52h28.28a32.21,32.21,0,0,0,24.6-10.52q9.79-10.51,9.79-25.74t-9.79-25.74A32.21,32.21,0,0,0,759.86,426.13ZM778,481.76a23.37,23.37,0,0,1-18.13,7.77H741.21V435.25h18.65A23.37,23.37,0,0,1,778,443q7,7.77,7,19.37T778,481.76Z"/><path class="cls-4" d="M865.52,424.79a37.32,37.32,0,1,0,26.67,10.93A36.09,36.09,0,0,0,865.52,424.79Zm19.94,57.64a28.49,28.49,0,0,1-39.88,0,29.16,29.16,0,0,1,0-40.19,28.52,28.52,0,0,1,39.88,0,29.16,29.16,0,0,1,0,40.19Z"/><polygon class="cls-4" points="959.78 480.59 922.17 426.13 914.72 426.13 914.72 498.65 924.36 498.65 924.36 444.47 961.65 498.65 969.42 498.65 969.42 426.13 959.78 426.13 959.78 480.59"/><polygon class="cls-4" points="1010.86 498.65 1020.49 498.65 1020.49 467.88 1051.26 467.88 1051.26 458.76 1020.49 458.76 1020.49 435.25 1052.6 435.25 1052.6 426.13 1010.86 426.13 1010.86 498.65"/><path class="cls-4" d="M1098,424.79a37.32,37.32,0,1,0,26.68,10.93A36.11,36.11,0,0,0,1098,424.79Zm20,57.64a28.51,28.51,0,0,1-39.89,0,29.18,29.18,0,0,1,0-40.19,28.53,28.53,0,0,1,39.89,0,29.18,29.18,0,0,1,0,40.19Z"/><path class="cls-4" d="M1194.57,461.46a22.11,22.11,0,0,0-2.43-28.75,21.87,21.87,0,0,0-16-6.58h-29v72.52h9.63V470.88h17.12l16.24,27.77h10.67l-17.09-29A22.41,22.41,0,0,0,1194.57,461.46Zm-37.76.72v-27h19.37a12.24,12.24,0,0,1,9.17,3.93,13.26,13.26,0,0,1,3.78,9.53,13.41,13.41,0,0,1-3.78,9.58,12.15,12.15,0,0,1-9.17,4Z"/><path class="cls-4" d="M1264.65,426.13h-28.28v72.52h28.28a32.18,32.18,0,0,0,24.6-10.52q9.8-10.51,9.79-25.74t-9.79-25.74A32.18,32.18,0,0,0,1264.65,426.13Zm18.13,55.63a23.37,23.37,0,0,1-18.13,7.77H1246V435.25h18.65a23.37,23.37,0,0,1,18.13,7.77q7,7.77,7,19.37T1282.78,481.76Z"/><polygon class="cls-4" points="1320.38 466.53 1350.94 466.53 1350.94 457.52 1320.38 457.52 1320.38 435.25 1353.53 435.25 1353.53 426.13 1310.75 426.13 1310.75 498.65 1354.05 498.65 1354.05 489.53 1320.38 489.53 1320.38 466.53"/><path class="cls-4" d="M1386.89,426.13l-27,72.52h10.25l5.92-16.27h32.61l5.91,16.27h10.26l-27-72.52Zm-7.59,47.24,13-35.8,13,35.8Z"/><path class="cls-4" d="M1480.79,461.46a22.11,22.11,0,0,0-2.43-28.75,21.87,21.87,0,0,0-16-6.58h-29v72.52H1443V470.88h17.12l16.24,27.77h10.67l-17.09-29A22.51,22.51,0,0,0,1480.79,461.46Zm-37.76.72v-27h19.37a12.26,12.26,0,0,1,9.17,3.93,13.26,13.26,0,0,1,3.78,9.53,13.41,13.41,0,0,1-3.78,9.58,12.17,12.17,0,0,1-9.17,4Z"/><polygon class="cls-4" points="1532.22 426.13 1522.59 426.13 1522.59 498.65 1563.51 498.65 1563.51 489.53 1532.22 489.53 1532.22 426.13"/><rect class="cls-4" x="1573.14" y="426.13" width="9.63" height="72.51"/><polygon class="cls-4" points="1598.31 498.65 1607.95 498.65 1607.95 467.88 1638.71 467.88 1638.71 458.76 1607.95 458.76 1607.95 435.25 1640.06 435.25 1640.06 426.13 1598.31 426.13 1598.31 498.65"/><polygon class="cls-4" points="1661.4 489.53 1661.4 466.53 1691.96 466.53 1691.96 457.52 1661.4 457.52 1661.4 435.25 1694.55 435.25 1694.55 426.13 1651.77 426.13 1651.77 498.65 1695.07 498.65 1695.07 489.53 1661.4 489.53"/></svg>