<svg id="Layer_1" data-name="Layer 1" xmlns="http://www.w3.org/2000/svg" xmlns:xlink="http://www.w3.org/1999/xlink" viewBox="0 0 943.33 1391.52"><defs><style>.cls-1{fill:url(#linear-gradient);}.cls-2{fill:url(#linear-gradient-2);}.cls-3{fill:url(#linear-gradient-3);}</style><linearGradient id="linear-gradient" x1="22.03" y1="1516.9" x2="1072.25" y2="190.31" gradientUnits="userSpaceOnUse"><stop offset="0" stop-color="#f3f348"/><stop offset="0.22" stop-color="#cce64f"/><stop offset="0.72" stop-color="#6ac761"/><stop offset="1" stop-color="#31b46c"/></linearGradient><linearGradient id="linear-gradient-2" x1="-48.97" y1="1460.7" x2="1001.25" y2="134.1" xlink:href="#linear-gradient"/><linearGradient id="linear-gradient-3" x1="-218.09" y1="1326.81" x2="832.13" y2="0.21" xlink:href="#linear-gradient"/></defs><path class="cls-1" d="M911.41,643A31.93,31.93,0,0,0,879.48,675v244.9c0,224.87-182.94,407.81-407.81,407.81S63.85,1144.72,63.85,919.85V825.33a31.93,31.93,0,0,0-63.85,0v94.52c0,260.08,211.59,471.67,471.67,471.67s471.66-211.59,471.66-471.67V675A31.92,31.92,0,0,0,911.41,643Z"/><path class="cls-2" d="M471.67,1216.2c163.4,0,296.34-133,296.34-296.35V493.45a31.93,31.93,0,0,0-63.85,0v426.4c0,128.2-104.29,232.49-232.49,232.49s-232.5-104.29-232.5-232.49V594.46a31.93,31.93,0,0,0-63.85,0V919.85C175.32,1083.25,308.26,1216.2,471.67,1216.2Z"/><path class="cls-3" d="M260.69,387.9,439.74,496.38V788.51l-62.36-98.65a31.93,31.93,0,1,0-54,34.12L439.74,908v104a31.93,31.93,0,0,0,63.85,0V907.69a31.79,31.79,0,0,0,0-15V785.9a31.83,31.83,0,0,0,3.55-4.53L629.32,588.09a31.93,31.93,0,0,0-54-34.12L503.59,667.48V491.87L676.8,396.68a31.9,31.9,0,0,0,16.54-27.3L698,147.56a31.94,31.94,0,0,0-15.37-28L492.89,4.62A31.91,31.91,0,0,0,461,4L266.53,110.8A31.94,31.94,0,0,0,250,138.11l-4.68,221.81A31.91,31.91,0,0,0,260.69,387.9Zm52.75-230,162.13-89.1L633.8,164.64l-3.9,185L503.59,419V253.74a31.93,31.93,0,0,0-63.85,0v168l-130.2-78.89Z"/></svg>